<svg xmlns="http://www.w3.org/2000/svg" width="44" height="44" viewBox="0 0 44 44" fill="none">
<path d="M39.8625 17.6054C39.5724 16.9234 39.2445 16.2607 38.8806 15.6209C38.7587 15.3846 38.5669 15.1989 38.3357 15.0931C38.1057 14.9882 37.8492 14.9714 37.6091 15.0456C37.0196 15.2208 36.4394 15.4304 35.8711 15.6736C35.6322 15.7748 35.4328 15.9611 35.3065 16.2015C35.1773 16.4405 35.1271 16.7196 35.1642 16.9932C35.2476 17.8324 35.3753 18.9725 35.3998 19.21C34.9531 19.4158 34.5112 19.6322 34.0792 19.8856L32.7634 18.3021C32.6082 18.0905 32.3896 17.9432 32.1448 17.8852C31.9005 17.8381 31.6486 17.8789 31.428 18.0013C30.8782 18.3127 30.3578 18.6822 29.8374 19.02C29.6287 19.1701 29.4731 19.3913 29.3955 19.6481C29.3121 19.908 29.3121 20.1904 29.3955 20.4503C29.6508 21.279 30.0092 22.4243 30.0485 22.5616C29.7834 22.7832 29.5183 23.0102 29.2581 23.2424L27.7263 22.0126C27.5309 21.8457 27.2886 21.7548 27.039 21.7548C26.7893 21.7548 26.5471 21.8457 26.3516 22.0126C25.8739 22.4356 25.4198 22.8886 24.9917 23.3691C24.8159 23.563 24.7039 23.8135 24.6728 24.0822C24.6418 24.351 24.6935 24.6233 24.8199 24.8575L25.846 26.7946C25.1852 27.6163 24.5689 28.478 24 29.3756L24.1129 29.6923L24.2995 30.2201C24.3731 30.4154 24.4419 30.6107 24.5106 30.806C24.5793 31.0012 24.6284 31.1385 24.6824 31.3338L24.8739 31.9407C24.9328 32.1413 24.977 32.2785 25.0359 32.4369L25.2126 33.0597L25.3501 33.5558C25.409 33.7722 25.4581 33.9834 25.5121 34.2314C25.5661 34.4795 25.5956 34.5587 25.6398 34.7223C25.684 34.8859 25.679 34.9334 25.7036 35.0337C27.0722 31.943 29.0311 29.1968 31.4526 26.9741C33.8537 24.7909 36.6606 23.184 39.6858 22.2607C39.8378 21.2425 39.9264 20.2145 39.9509 19.1836V18.2019C39.9509 18.2019 39.8871 17.7268 39.8625 17.6054ZM39.6318 23.8389L39.4158 23.9022C39.1867 23.9726 38.9608 24.0465 38.7383 24.1239L38.1197 24.3403L37.9135 24.4353L37.5354 24.5936C37.4558 24.6193 37.3785 24.6528 37.3047 24.6939L36.961 24.8417L36.7205 24.9578C36.6077 25.0048 36.4978 25.0594 36.3915 25.1214L36.151 25.2428L35.8368 25.4065L35.5962 25.549L35.2869 25.7179L35.0463 25.8657L34.7469 26.0504L34.5112 26.1982L34.2166 26.3935L33.9859 26.5518L33.6913 26.7577L33.4753 26.916L33.166 27.143L32.9647 27.3013L32.6554 27.5599L32.4787 27.7024L32.1252 28.0033L31.9975 28.1141L31.5066 28.5522L31.0746 28.9797L30.9371 29.1222L30.6327 29.4389L30.4707 29.6184L30.1958 29.914L30.0288 30.1092C29.9405 30.2043 29.8619 30.3098 29.7785 30.4048L29.6017 30.6107C29.5285 30.7122 29.4498 30.8092 29.3661 30.901L29.1991 31.1385L28.9733 31.434L28.8113 31.661L28.5953 31.9619L28.4382 32.1941L28.232 32.5055L28.0798 32.743L27.8736 33.065L27.7312 33.2972C27.6674 33.4133 27.5987 33.5189 27.5348 33.635C27.471 33.7511 27.4465 33.7881 27.4072 33.8672L27.201 34.2314L27.093 34.4426L26.872 34.8806L26.7886 35.0337C26.6953 35.229 26.5971 35.4296 26.5137 35.6354L26.4547 35.7515C26.3909 35.9099 26.3173 36.0735 26.2485 36.2424C26.1798 36.4113 26.1847 36.3902 26.1553 36.4641L25.9982 36.8599C25.9491 36.9972 25.9343 37.0288 25.9 37.1186L25.7625 37.4722L25.6692 37.7519C25.6398 37.8311 25.6152 37.9208 25.5809 38C25.8951 37.9208 26.1994 37.8311 26.5137 37.7308L27.3286 37.4722C27.4465 37.4247 27.5692 37.3877 27.687 37.3297L28.178 37.1238L28.5364 36.9655L28.8407 36.823L29.263 36.6224L29.5624 36.4694L29.8865 36.2952H29.9208L30.0927 36.2002L30.4363 36.0049L30.8635 35.741L31.2955 35.4718C31.6441 35.2343 32.0074 34.9757 32.3707 34.7065L32.7192 34.4267L32.896 34.2895L33.2789 33.9728L33.6177 33.672C33.544 33.5506 33.4753 33.4292 33.4115 33.3025C33.2793 32.9988 33.201 32.6712 33.1807 32.3366V32.0146C33.2082 31.514 33.3678 31.0322 33.6408 30.6256C33.9139 30.2189 34.289 29.9044 34.7223 29.7187C35.2915 29.4756 35.9255 29.4756 36.4946 29.7187C36.645 29.7858 36.7895 29.8671 36.9267 29.9615L37.0494 29.7873L37.2851 29.4389L37.4765 29.1486C37.5649 29.0272 37.6385 28.9006 37.7171 28.7686L37.7613 28.6947L37.8202 28.5944L38.1344 28.0666C38.2179 27.9294 38.2964 27.7869 38.3701 27.6444C38.4437 27.5019 38.6401 27.1166 38.7677 26.8685C38.8168 26.7735 38.8659 26.6785 38.9052 26.5835C39.0181 26.346 39.131 26.1032 39.2341 25.8604C39.3372 25.6176 39.3519 25.5965 39.401 25.4698L39.5876 25L39.7594 24.5197C39.776 24.439 39.8025 24.3609 39.838 24.2875C39.838 24.2083 39.9067 24.0817 39.9411 23.9867L40 23.8547L39.6318 23.8389Z" fill="white"/>
<path fill-rule="evenodd" clip-rule="evenodd" d="M17.8901 35.9403C17.824 35.6949 17.7579 35.4441 17.6817 35.1879C17.6055 34.9318 17.5445 34.7504 17.4733 34.5049C17.4533 34.4301 17.4278 34.3569 17.3971 34.2861L17.2497 33.8859C17.234 33.7955 17.1993 33.7098 17.1481 33.6352C17.1125 33.5551 17.0617 33.379 17.0108 33.251C16.96 33.1229 16.9397 33.0749 16.899 32.9895C16.8584 32.9041 16.8024 32.744 16.7465 32.6213C16.6906 32.4986 16.6703 32.4452 16.6347 32.3545L16.4772 32.0077L16.345 31.7409L16.1976 31.394L15.8825 30.8231L15.7301 30.5456L15.5471 30.2095L15.3997 29.964L15.1812 29.6438L15.0338 29.4091C14.9677 29.297 14.8864 29.1849 14.8203 29.0729L14.6729 28.8488L14.4341 28.5019C14.3838 28.4378 14.338 28.3701 14.2968 28.2992L14.0072 27.9096L13.9055 27.7282C13.7632 27.5468 13.6311 27.3707 13.4888 27.1946L13.0974 26.7144L12.9551 26.565L12.64 26.2235L12.4723 26.042C12.3859 25.9407 12.2893 25.8393 12.1928 25.7432L12.0098 25.5565L11.7353 25.279L11.5371 25.0869L11.2728 24.8041L11.1153 24.628C11.0238 24.5373 10.9272 24.4519 10.8307 24.3719L10.6071 24.1851L10.3174 23.9503L10.0988 23.7742L9.80405 23.5448C9.72781 23.4914 9.65666 23.4274 9.58042 23.3794C9.50419 23.3314 9.37713 23.2246 9.27548 23.1553L9.08235 22.9899L8.76217 22.7764L8.54362 22.627L7.96932 22.2482L7.55765 22.008L7.41534 21.928C7.23238 21.8159 7.03925 21.7146 6.84612 21.6132L6.73939 21.5705L6.27181 21.3304L6.03294 21.229L5.66193 21.0529L5.42814 20.9408L5.08762 20.7968L4.82334 20.69L4.58955 20.5993C4.66579 20.9408 4.74711 21.2823 4.84367 21.6292C4.87925 21.7786 4.91991 21.9013 4.95548 22.0294L5.09779 22.5096C5.14353 22.6697 5.17911 22.7764 5.22993 22.9098C5.28075 23.0432 5.36715 23.2993 5.42814 23.4914L5.57553 23.8863L5.71275 24.2225L5.9008 24.6867C5.94654 24.8041 5.99737 24.9108 6.04311 25.0229L6.21082 25.3804C6.23624 25.4444 6.26673 25.5084 6.29722 25.5725C6.36838 25.7165 6.4192 25.8286 6.48527 25.9513L6.73431 26.4316C6.81562 26.597 6.90202 26.7571 6.98842 26.9065C7.21205 27.3013 7.45092 27.7069 7.7152 28.1017L7.96932 28.4913L8.09638 28.694L8.39624 29.1102L8.67068 29.4784C8.77909 29.3943 8.8948 29.321 9.01628 29.2596C9.31652 29.1411 9.63586 29.0849 9.95652 29.0942H10.2615C10.5762 29.1194 10.8834 29.2082 11.1661 29.3557C11.4557 29.4995 11.7149 29.7027 11.9285 29.9533C12.1474 30.1999 12.3199 30.4878 12.4367 30.8017C12.6553 31.4343 12.6553 32.1275 12.4367 32.7601C12.3758 32.9243 12.2992 33.0816 12.208 33.2296L12.3757 33.3737L12.701 33.6298L12.9754 33.8486L13.3312 34.1047L13.4024 34.1634L13.4989 34.2328L14.0072 34.5796L14.4087 34.8411C14.6475 34.9905 14.9169 35.1399 15.1405 35.2786L15.4048 35.4334L16.0909 35.7962L16.4619 35.983H16.4975L16.9346 36.1858L17.3869 36.3885L17.6004 36.4739L17.8901 36.5913L18.012 36.6393L17.8952 36.1537L17.8901 35.9403ZM24.3904 37.4824C24.3965 37.4092 24.3842 37.3356 24.3548 37.269C24.3412 37.049 24.3072 36.831 24.2532 36.618C23.8205 34.1216 23.0807 31.6947 22.0525 29.3984L22.0983 29.4731L23.623 27.8296C23.8 27.6335 23.9123 27.3828 23.9432 27.1146C23.9824 26.8479 23.9396 26.575 23.8212 26.3355C23.4814 25.7625 23.1133 25.2086 22.7183 24.676C22.5654 24.4566 22.3472 24.297 22.0983 24.2225C21.8517 24.1483 21.5886 24.1634 21.3512 24.2652L19.6079 25.0015C19.5368 24.8895 19.4656 24.7774 19.3843 24.6707L19.2115 24.4199C19.1353 24.3078 19.059 24.1958 18.9777 24.0944C18.8964 23.993 18.8557 23.9237 18.7896 23.8436L18.5609 23.5341L19.6841 21.6398C19.8234 21.4058 19.8858 21.1303 19.862 20.8555C19.8415 20.5811 19.7342 20.3219 19.5571 20.1191C19.1244 19.6221 18.6681 19.1484 18.1899 18.6997C17.9988 18.5193 17.7552 18.4121 17.4987 18.3956C17.2409 18.375 16.9842 18.4485 16.772 18.6037L15.1405 19.8043L15.049 19.7189L14.7797 19.4841L14.5408 19.26L14.2664 19.0305L14.1647 18.9505C14.3019 18.593 14.6374 17.6699 14.8915 16.9602C14.9952 16.6997 15.0113 16.4099 14.9372 16.1384C14.8611 15.8767 14.7081 15.647 14.5001 15.4821C13.9847 15.084 13.4504 14.7136 12.8992 14.3722C12.676 14.2384 12.4169 14.1858 12.1623 14.2228C11.9069 14.2552 11.6709 14.3819 11.4965 14.5803L10.0988 16.1384L9.85487 15.9997L9.50419 15.8129L9.23482 15.6742L8.90447 15.5035L8.70118 15.4181C8.73675 15.1406 8.89431 14.0521 9.00104 13.209C9.03511 12.9301 8.98157 12.6472 8.84857 12.4032C8.72583 12.1635 8.5285 11.9751 8.28951 11.8696C7.70493 11.6078 7.1078 11.3781 6.50052 11.1813C6.25899 11.0905 5.99494 11.0905 5.75341 11.1813C5.50684 11.2827 5.30185 11.4714 5.17402 11.7149C4.70645 12.5206 4.07115 13.6465 4.05082 13.6785C4.05082 14.2121 4 14.7457 4 15.2793C3.99989 16.3233 4.06611 17.3662 4.19821 18.4009H4.2592L4.57939 18.5076L4.9504 18.641L5.26551 18.7637L5.62635 18.8971L5.94146 19.0305L6.29214 19.1853C6.39887 19.228 6.49544 19.276 6.59708 19.324L6.94268 19.4788L7.24762 19.6389L7.59322 19.8096L7.888 19.9643L8.22344 20.1511L8.51821 20.3219L8.84348 20.514L9.13318 20.69L9.45845 20.8981L9.73798 21.0849L10.0531 21.293L10.6376 21.7199L10.9069 21.9227L11.2068 22.1574L11.466 22.3709L11.7608 22.6163L12.025 22.8351C12.1216 22.9151 12.208 23.0059 12.3096 23.0859L12.5587 23.3207L12.8331 23.5822L13.0822 23.8223L13.3515 24.0944C13.4328 24.1691 13.5091 24.2545 13.5853 24.3345L13.8547 24.6173L14.0834 24.8681L14.3426 25.1616L14.556 25.4177L14.8051 25.7165L15.0236 25.9833L15.2625 26.2928L15.4709 26.565L15.6996 26.8905L15.8978 27.1626L16.1214 27.4881L16.3145 27.7709C16.3857 27.883 16.4518 27.995 16.528 28.1071C16.595 28.2033 16.6545 28.305 16.7059 28.4112C16.7618 28.5126 16.8431 28.6353 16.9092 28.7527C16.9618 28.8548 17.0213 28.9529 17.0871 29.0462L17.2802 29.4037L17.4428 29.6972C17.5089 29.8199 17.5699 29.9427 17.6309 30.0654C17.6919 30.1881 17.7376 30.2681 17.7833 30.3695C17.8291 30.4709 17.9104 30.615 17.9663 30.7377L18.1086 31.0472C18.1544 31.1486 18.2306 31.3087 18.2865 31.4367C18.3424 31.5648 18.378 31.6342 18.4136 31.7409C18.4491 31.8476 18.5304 32.0077 18.5813 32.1411L18.7083 32.4452C18.7592 32.5893 18.81 32.7334 18.8659 32.8774L18.9726 33.1603C19.0336 33.3203 19.0844 33.4858 19.1353 33.6458C19.1669 33.7241 19.194 33.8043 19.2166 33.8859C19.303 34.1367 19.3792 34.3822 19.4504 34.6277C19.5215 34.8731 19.5876 35.1613 19.6536 35.3854C19.6631 35.468 19.6837 35.5489 19.7146 35.6255C19.7146 35.7109 19.801 35.983 19.8366 36.1591C19.8722 36.3352 19.8824 36.3405 19.9027 36.4259C19.923 36.5113 19.9738 36.7781 20.0043 36.9595C20.0348 37.1409 20.045 37.1302 20.0552 37.2156V37.3277L20.8582 37.5198L21.1529 37.5838H21.2089L21.5849 37.6585L21.9001 37.7065L22.2507 37.7599L22.6014 37.8079L22.9572 37.8506C23.0766 37.8453 23.1961 37.8561 23.3129 37.8826H23.6026L24.4514 38V37.9466C24.4311 37.7919 24.4057 37.6478 24.3904 37.4824ZM26.525 6.97654C26.174 6.61216 25.7773 6.29979 25.3459 6.04808C25.3058 6.02189 25.2607 6.00547 25.2137 6.00006C25.1672 5.99902 25.1214 6.01198 25.0816 6.03741C25.0406 6.06458 25.0058 6.10104 24.98 6.14413C24.9582 6.18882 24.946 6.23802 24.9444 6.2882V10.557C24.9397 10.7144 24.88 10.8645 24.7767 10.9785C24.6758 11.0903 24.5369 11.1555 24.3904 11.16H21.5595C21.4116 11.1552 21.2712 11.0901 21.1682 10.9785C21.0659 10.868 21.0062 10.7217 21.0005 10.5677V6.29887C20.9961 6.24778 20.9804 6.19845 20.9547 6.1548C20.9302 6.11202 20.895 6.07699 20.8531 6.05342C20.8147 6.02285 20.7689 6.00434 20.7209 6.00006C20.6735 5.99993 20.6266 6.01086 20.5837 6.03207C20.1462 6.30337 19.7418 6.62947 19.3792 7.00322C18.8717 7.54114 18.48 8.1871 18.2306 8.8975C17.9769 9.60561 17.8694 10.3623 17.9155 11.1173C17.951 11.8714 18.1377 12.6091 18.4635 13.2822C18.7893 13.9553 19.2468 14.5486 19.8061 15.0232C20.1125 15.3002 20.4547 15.5302 20.8226 15.7062H25.107C25.4707 15.5222 25.812 15.2928 26.1235 15.0232C26.6797 14.5469 27.1336 13.9522 27.4551 13.2784C27.7754 12.5996 27.9589 11.8588 27.9938 11.1022C28.0288 10.3456 27.9146 9.58959 27.6584 8.88149C27.4035 8.17454 27.0086 7.5325 26.4996 6.99789L26.525 6.97654ZM23.8669 16.672H22.0627C21.9389 16.6779 21.8214 16.731 21.7323 16.8214C21.6488 16.9179 21.6018 17.0432 21.6002 17.1736V19.6228C21.6018 19.7532 21.6488 19.8785 21.7323 19.975C21.8214 20.0654 21.9389 20.1186 22.0627 20.1244H23.8669C23.9907 20.1186 24.1082 20.0654 24.1973 19.975C24.2808 19.8785 24.3278 19.7532 24.3294 19.6228V17.2056C24.3357 17.0693 24.2921 16.9357 24.2074 16.8321C24.1633 16.7843 24.1117 16.7446 24.055 16.7147C23.9954 16.6881 23.9316 16.6736 23.8669 16.672Z" fill="white"/>
</svg>