<svg width="44" height="44" viewBox="0 0 44 44" fill="none" xmlns="http://www.w3.org/2000/svg">
<path d="M38.882 17.3789C38.592 16.7559 38.2637 16.1508 37.8989 15.5669C37.7768 15.3512 37.5848 15.1816 37.3533 15.085C37.123 14.9892 36.8662 14.9739 36.6258 15.0416C36.0356 15.2016 35.4547 15.393 34.8857 15.6151C34.6472 15.7079 34.4477 15.8768 34.3192 16.0945C34.1908 16.3123 34.141 16.5661 34.1779 16.815C34.2614 17.5813 34.3892 18.6222 34.4138 18.8391C33.9665 19.027 33.5241 19.2246 33.0916 19.4559L31.7742 18.0102C31.6175 17.8193 31.399 17.6867 31.1548 17.6343C30.9102 17.5917 30.6581 17.6289 30.4372 17.7403C29.8866 18.0246 29.3656 18.362 28.8445 18.6704C28.6357 18.8075 28.4798 19.0095 28.4022 19.2439C28.3186 19.4812 28.3186 19.7391 28.4022 19.9764C28.6578 20.733 29.0166 21.7787 29.0559 21.904C28.7905 22.1064 28.525 22.3137 28.2645 22.5257L26.7309 21.4028C26.5352 21.2504 26.2926 21.1674 26.0427 21.1674C25.7928 21.1674 25.5502 21.2504 25.3545 21.4028C24.8773 21.7903 24.4227 22.2038 23.9929 22.6414C23.8144 22.8165 23.7018 23.0459 23.6734 23.2919C23.6404 23.5376 23.6924 23.787 23.8209 24.0004L24.8482 25.769C24.1859 26.5185 23.5687 27.3054 23 28.1255L23.1131 28.4147L23.2998 28.8966C23.3736 29.0749 23.4424 29.2532 23.5112 29.4315C23.58 29.6098 23.6292 29.7351 23.6833 29.9134L23.875 30.4676C23.9339 30.6508 23.9782 30.7761 24.0372 30.9206L24.2141 31.4893L24.3518 31.9423C24.4108 32.1399 24.4599 32.3326 24.514 32.5591C24.5681 32.7856 24.5975 32.8579 24.6418 33.0073C24.686 33.1567 24.6811 33.2001 24.7057 33.2916C26.0761 30.4697 28.0374 27.9624 30.4618 25.9328C32.8658 23.9395 35.6762 22.4723 38.7051 21.6293C38.8573 20.6997 38.9459 19.7611 38.9705 18.8198V17.9234C38.9705 17.9234 38.9066 17.4897 38.882 17.3789ZM38.651 23.0703L38.4347 23.1281C38.2053 23.1924 37.9792 23.2598 37.7564 23.3305L37.137 23.5281L36.9306 23.6148L36.5521 23.7594C36.4723 23.7828 36.395 23.8135 36.321 23.851L35.977 23.9859L35.7361 24.0919C35.6236 24.1357 35.5136 24.1856 35.4068 24.2413L35.1659 24.3522L34.8513 24.5015L34.6104 24.6317L34.3008 24.7859L34.0599 24.9208L33.7601 25.0895L33.5241 25.2244L33.2292 25.4027L32.9982 25.5473L32.7032 25.7352L32.4869 25.8798L32.1773 26.087L31.9757 26.2316L31.6661 26.4678L31.4891 26.5979L31.1352 26.8726L31.0074 26.9738L30.5158 27.3738L30.0833 27.7641L29.9456 27.8942L29.6409 28.1834L29.4786 28.3472L29.2034 28.6171L29.0363 28.7954C28.9478 28.8821 28.8691 28.9785 28.7856 29.0653L28.6086 29.2532C28.5365 29.347 28.4577 29.4355 28.3727 29.5183L28.2055 29.7351L27.9794 30.005L27.8172 30.2122L27.6009 30.4869L27.4436 30.699L27.2372 30.9833L27.0848 31.2001L26.8783 31.4941L26.7358 31.7062C26.6719 31.8122 26.6031 31.9086 26.5392 32.0146C26.4753 32.1206 26.4507 32.1543 26.4114 32.2266L26.2049 32.5591L26.0968 32.7519L25.8756 33.1519L25.792 33.2916C25.6986 33.47 25.6003 33.6531 25.5167 33.841L25.4578 33.9471C25.3939 34.0916 25.3201 34.241 25.2513 34.3952C25.1825 34.5494 25.1874 34.5302 25.1579 34.5976L25.0006 34.9591C24.9515 35.0844 24.9367 35.1133 24.9023 35.1952L24.7647 35.5181L24.6713 35.7735C24.6418 35.8458 24.6172 35.9277 24.5828 36C24.8974 35.9277 25.2022 35.8458 25.5167 35.7542L26.3327 35.5181C26.4507 35.4747 26.5736 35.441 26.6916 35.388L27.1831 35.2L27.5419 35.0555L27.8467 34.9253L28.2694 34.7422L28.5693 34.6025L28.8937 34.4434H28.9281L29.1002 34.3567L29.4442 34.1784L29.8719 33.9374L30.3045 33.6916C30.6535 33.4748 31.0172 33.2386 31.381 32.9929L31.73 32.7374L31.9069 32.6122L32.2903 32.323L32.6295 32.0483C32.5549 31.9393 32.486 31.8267 32.423 31.711C32.2924 31.4331 32.2141 31.1343 32.192 30.8291V30.5351C32.235 29.9215 32.5102 29.3457 32.9637 28.9207C33.1892 28.7157 33.4507 28.5524 33.7355 28.4388C34.3053 28.2169 34.9401 28.2169 35.51 28.4388C35.6605 28.5001 35.8053 28.5743 35.9425 28.6605L36.0654 28.5014L36.3014 28.1834L36.4931 27.9183C36.5816 27.8075 36.6553 27.6918 36.7339 27.5713L36.7782 27.5039L36.8372 27.4123L37.1518 26.9304C37.2372 26.806 37.316 26.6773 37.3877 26.5449C37.4614 26.4051 37.6581 26.0629 37.7859 25.8364C37.835 25.7497 37.8842 25.663 37.9235 25.5762C38.0366 25.3594 38.1496 25.1377 38.2528 24.916C38.3561 24.6943 38.3708 24.675 38.42 24.5594L38.6068 24.1305L38.7788 23.6919C38.7956 23.6182 38.822 23.547 38.8574 23.4799C38.882 23.4076 38.9263 23.2919 38.9607 23.2052L39 23.0847L38.651 23.0703Z" fill="#1570EF"/>
<path fill-rule="evenodd" clip-rule="evenodd" d="M18.2972 34.1978C18.234 33.983 18.1707 33.7636 18.0978 33.5394C18.0248 33.3153 17.9664 33.1566 17.8983 32.9418C17.8791 32.8763 17.8547 32.8123 17.8253 32.7504L17.6842 32.4002C17.6687 32.3212 17.6355 32.2463 17.5869 32.1808C17.5528 32.1107 17.5042 31.9567 17.4555 31.8446C17.4069 31.7325 17.3874 31.6905 17.3485 31.6158C17.3096 31.5411 17.256 31.401 17.2025 31.2937C17.149 31.1863 17.1295 31.1396 17.0955 31.0602L16.9446 30.7567L16.8181 30.5233L16.677 30.2198L16.3754 29.7202L16.2294 29.4774L16.0543 29.1833L15.9132 28.9685L15.704 28.6884L15.5629 28.4829C15.4996 28.3849 15.4218 28.2868 15.3585 28.1888L15.2174 27.9927L14.9887 27.6892C14.9417 27.6323 14.8979 27.5731 14.8574 27.5118L14.58 27.1709L14.4827 27.0122C14.3465 26.8534 14.22 26.6994 14.0838 26.5453L13.7091 26.1251L13.5729 25.9943L13.2858 25.6955L13.1253 25.5368C13.0426 25.4481 12.9501 25.3594 12.8577 25.2753L12.6825 25.1119L12.4198 24.8691L12.23 24.701L11.977 24.4536L11.8116 24.2995C11.724 24.2201 11.6316 24.1454 11.5391 24.0754L11.3251 23.912L11.0477 23.7065L10.8385 23.5525L10.5563 23.3517C10.4833 23.305 10.4152 23.249 10.3423 23.207C10.2693 23.1649 10.1476 23.0716 10.0503 23.0109L9.86544 22.8661L9.55891 22.6794L9.3497 22.5486L8.79991 22.2171L8.40581 22.007L8.26957 21.937C8.09442 21.8389 7.90953 21.7502 7.72464 21.6615L7.62247 21.6242L7.17485 21.4141L6.94617 21.3254L6.591 21.1713L6.36719 21.0732L6.0412 20.9472L5.7882 20.8538L5.56439 20.7744C5.63737 21.0732 5.71522 21.372 5.80766 21.6755C5.84172 21.8063 5.88064 21.9136 5.9147 22.0257L6.05093 22.4459C6.09472 22.586 6.12878 22.6794 6.17744 22.7961C6.22609 22.9128 6.3088 23.1369 6.36719 23.305L6.50829 23.6505L6.63965 23.9447L6.81967 24.3509C6.86346 24.4536 6.91212 24.547 6.95591 24.645L7.11647 24.9578C7.14079 25.0139 7.16999 25.0699 7.19918 25.1259C7.26729 25.252 7.31595 25.35 7.3792 25.4574L7.61761 25.8776C7.69545 26.0224 7.77816 26.1624 7.86088 26.2932C8.07496 26.6387 8.30363 26.9935 8.55663 27.339L8.79991 27.6799L8.92154 27.8573L9.2086 28.2215L9.47134 28.5436C9.57582 28.471 9.6865 28.407 9.80219 28.3522C10.0896 28.2484 10.3953 28.1993 10.7023 28.2075H10.9942C11.2957 28.2289 11.5899 28.3066 11.8603 28.4362C12.1375 28.562 12.3856 28.7398 12.5901 28.9592C12.8004 29.1743 12.9656 29.4264 13.0766 29.7015C13.2876 30.2548 13.2876 30.8618 13.0766 31.415C13.0174 31.5583 12.944 31.6959 12.8577 31.8259L13.0182 31.952L13.3296 32.1761L13.5924 32.3675L13.9329 32.5916L14.0011 32.643L14.0935 32.7037L14.58 33.0072L14.9644 33.236C15.1931 33.3667 15.451 33.4974 15.665 33.6188L15.918 33.7542L16.5749 34.0717L16.9301 34.2351H16.9641L17.3825 34.4125L17.8156 34.59L18.0199 34.6647L18.2972 34.7674L18.414 34.8094L18.3021 34.3845L18.2972 34.1978ZM24.5201 35.5471C24.5255 35.4831 24.5138 35.4188 24.4861 35.3603C24.4727 35.1679 24.4401 34.9772 24.3888 34.7907C23.9752 32.6062 23.267 30.4826 22.282 28.4736L22.3258 28.539L23.7855 27.1009C23.9549 26.9293 24.0624 26.71 24.092 26.4753C24.1221 26.2394 24.0727 26.0005 23.9509 25.7936C23.633 25.293 23.2888 24.8084 22.9194 24.3415C22.772 24.1506 22.5635 24.0112 22.3258 23.9447C22.0898 23.8798 21.8379 23.893 21.6106 23.982L19.9418 24.6263C19.876 24.5261 19.8045 24.4295 19.7277 24.3369L19.5623 24.1174C19.4893 24.0194 19.4163 23.9213 19.3384 23.8326C19.2606 23.7439 19.2217 23.6832 19.1584 23.6132L18.9395 23.3424L20.0147 21.6849C20.1474 21.4798 20.2071 21.239 20.185 20.9985C20.1643 20.7588 20.0617 20.5323 19.8931 20.3542C19.4801 19.9182 19.0432 19.5036 18.5843 19.1123C18.4014 18.9544 18.1681 18.8606 17.9226 18.8461C17.6758 18.8281 17.43 18.8925 17.2268 19.0282L15.665 20.0787L15.5775 20.004L15.3196 19.7986L15.0909 19.6025L14.8282 19.4017L14.7309 19.3317C14.8622 19.0189 15.1834 18.2111 15.4266 17.5902C15.5259 17.3622 15.5413 17.1086 15.4704 16.8711C15.3988 16.6416 15.2521 16.4402 15.052 16.2969C14.5654 15.9513 14.0448 15.6245 13.5194 15.3257C13.3057 15.2086 13.0576 15.1626 12.8139 15.195C12.5698 15.2244 12.3443 15.3351 12.1765 15.5078L10.8385 16.8711L10.605 16.7497L10.2693 16.5863L10.0114 16.4649L9.69515 16.3155L9.50053 16.2408C9.53459 15.998 9.68542 15.0456 9.78759 14.3079C9.82167 14.0638 9.77033 13.8158 9.64163 13.6028C9.52476 13.3926 9.33566 13.2276 9.10643 13.1359C8.54737 12.9055 7.97564 12.7044 7.3938 12.5336C7.16258 12.4542 6.90979 12.4542 6.67858 12.5336C6.44275 12.6227 6.24661 12.7878 6.12392 13.0005C5.6763 13.7056 5.06812 14.6907 5.04865 14.7187C5.04865 15.1856 5 15.6525 5 16.1194C5.00004 17.0329 5.06343 17.9454 5.18975 18.8508H5.24814L5.55466 18.9442L5.90984 19.0609L6.21149 19.1683L6.55694 19.285L6.8586 19.4017L7.19431 19.5371C7.29649 19.5745 7.38893 19.6165 7.48624 19.6585L7.81709 19.7939L8.10901 19.934L8.43986 20.0834L8.72206 20.2188L9.04318 20.3822L9.32537 20.5316L9.63676 20.6997L9.91409 20.8538L10.2255 21.0359L10.4931 21.1993L10.7947 21.3814L11.3543 21.7549L11.6121 21.9323L11.8992 22.1378L12.1473 22.3245L12.4295 22.5393L12.6825 22.7307C12.775 22.8008 12.8577 22.8801 12.955 22.9502L13.1934 23.1556L13.4561 23.3844L13.6945 23.5945L13.9524 23.8326C14.0303 23.898 14.1032 23.9727 14.1762 24.0427L14.4341 24.2902L14.653 24.5096L14.9012 24.7664L15.1055 24.9905L15.3439 25.252L15.5531 25.4854L15.7818 25.7562L15.9813 25.9943L16.2002 26.2792L16.39 26.5173L16.6041 26.8021L16.789 27.0495C16.8571 27.1476 16.9203 27.2456 16.9933 27.3437C17.056 27.4288 17.1129 27.5177 17.1636 27.6098C17.2171 27.6985 17.295 27.8059 17.3582 27.9086C17.4088 27.9979 17.4657 28.0837 17.5285 28.1654L17.7134 28.4783L17.8691 28.735C17.9323 28.8424 17.9907 28.9498 18.0491 29.0572C18.1075 29.1646 18.1513 29.2346 18.1951 29.3233C18.2389 29.4121 18.3167 29.5381 18.3702 29.6455C18.4237 29.7529 18.4627 29.8276 18.5065 29.9163C18.5502 30.005 18.6232 30.1451 18.6767 30.2571C18.7303 30.3692 18.7643 30.4299 18.7984 30.5233C18.8324 30.6167 18.9103 30.7567 18.9589 30.8734L19.0806 31.1396C19.1292 31.2656 19.1779 31.3917 19.2314 31.5178L19.3336 31.7652C19.392 31.9053 19.4406 32.05 19.4893 32.1901C19.5196 32.2586 19.5456 32.3287 19.5671 32.4002C19.6498 32.6196 19.7228 32.8344 19.7909 33.0492C19.859 33.264 19.9223 33.5161 19.9855 33.7122C19.9929 33.7848 20.0126 33.8558 20.0439 33.9223C20.0683 33.997 20.1266 34.2351 20.1607 34.3892C20.1948 34.5433 20.2045 34.5479 20.224 34.6226C20.2434 34.6974 20.2921 34.9308 20.3213 35.0895C20.3505 35.2483 20.3602 35.239 20.3699 35.3137V35.4117L21.1387 35.5798L21.4209 35.6358H21.4744L21.8344 35.7012L22.1361 35.7432L22.4718 35.7899L22.8075 35.8319L23.1481 35.8693C23.2624 35.8638 23.377 35.8733 23.4887 35.8973H23.766L24.5785 36V35.9533C24.5591 35.8179 24.5347 35.6918 24.5201 35.5471ZM26.5636 8.85448C26.2284 8.53479 25.8485 8.26137 25.4348 8.04207C25.3976 8.01699 25.3538 8.00243 25.3083 8.00005C25.2638 7.99914 25.2199 8.01048 25.1818 8.03273C25.1425 8.05651 25.1093 8.08841 25.0845 8.12611C25.0637 8.16522 25.052 8.20826 25.0505 8.25218V11.9874C25.046 12.1251 24.9889 12.2564 24.8899 12.3562C24.7928 12.4532 24.6602 12.5101 24.5201 12.515H21.8101C21.6687 12.5098 21.5347 12.4531 21.4354 12.3562C21.3367 12.26 21.2794 12.1317 21.2749 11.9967V8.25218C21.2707 8.20747 21.2557 8.16431 21.2311 8.12611C21.2076 8.08868 21.174 8.05803 21.1338 8.0374C21.096 8.01397 21.0522 8.00104 21.0073 8.00005C20.9619 7.99994 20.917 8.0095 20.8759 8.02806C20.4571 8.26545 20.0699 8.55079 19.7228 8.87782C19.2379 9.34922 18.8631 9.91422 18.6232 10.5353C18.3822 11.1554 18.2794 11.8171 18.3216 12.4776C18.357 13.1372 18.5365 13.7822 18.8483 14.3709C19.1601 14.9597 19.5973 15.479 20.1315 15.8953C20.4259 16.1363 20.7533 16.3374 21.1046 16.4929H25.2062C25.5628 16.3335 25.8978 16.1328 26.2036 15.8953C26.7356 15.478 27.1699 14.9578 27.4783 14.3686C27.785 13.7747 27.9606 13.1264 27.9941 12.4644C28.0276 11.8024 27.9183 11.1409 27.6729 10.5213C27.4279 9.90324 27.0499 9.34165 26.5636 8.87315V8.85448ZM24.019 17.338H22.2918C22.1726 17.3405 22.0593 17.388 21.9764 17.4701C21.8935 17.5523 21.8477 17.6626 21.849 17.7769V19.92C21.8477 20.0344 21.8935 20.1446 21.9764 20.2268C22.0593 20.309 22.1726 20.3564 22.2918 20.3589H24.019C24.1382 20.3564 24.2515 20.309 24.3344 20.2268C24.4173 20.1446 24.4631 20.0344 24.4617 19.92V17.8049C24.4664 17.746 24.4585 17.6868 24.4384 17.6309C24.4184 17.575 24.3867 17.5236 24.3452 17.4799C24.3038 17.4362 24.2535 17.4011 24.1974 17.3767C24.1413 17.3523 24.0806 17.3391 24.019 17.338Z" fill="#2E90FA"/>
</svg>
