<svg width="96" height="81" viewBox="0 0 96 81" fill="none" xmlns="http://www.w3.org/2000/svg">
<path d="M94.683 28.3799C93.9036 26.6297 93.0213 24.9297 92.0409 23.2891C91.7127 22.6831 91.1967 22.2066 90.5745 21.9351C89.9557 21.6661 89.2654 21.623 88.6194 21.8133C87.0331 22.2627 85.4719 22.8006 83.9429 23.4245C83.302 23.6852 82.7656 24.1598 82.4204 24.7715C82.0752 25.3833 81.9414 26.0964 82.0406 26.7958C82.2651 28.9486 82.6086 31.8731 82.6747 32.4824C81.4725 33.0104 80.2836 33.5655 79.121 34.2154L75.5806 30.1536C75.1595 29.6174 74.5722 29.2448 73.9161 29.0975C73.2587 28.9779 72.5812 29.0825 71.9874 29.3954C70.5078 30.1942 69.1075 31.142 67.7072 32.0085C67.1458 32.3937 66.7271 32.9612 66.5183 33.6197C66.2938 34.2864 66.2938 35.011 66.5183 35.6777C67.2052 37.8034 68.1696 40.7414 68.2753 41.0935C67.5619 41.6621 66.8485 42.2443 66.1484 42.8401L62.0267 39.6854C61.5009 39.257 60.849 39.0238 60.1773 39.0238C59.5056 39.0238 58.8536 39.257 58.3278 39.6854C57.0453 40.7739 55.8236 41.9357 54.6685 43.165C54.1887 43.6571 53.886 44.3015 53.8098 44.9928C53.7212 45.683 53.8607 46.3838 54.2061 46.9831L56.9671 51.9521C55.187 54.058 53.5285 56.2687 52 58.5729L52.3038 59.3853L52.8058 60.7392C53.004 61.2402 53.1889 61.7412 53.3739 62.2421C53.5588 62.7431 53.6909 63.0951 53.8363 63.5961L54.3515 65.1531C54.51 65.6676 54.6289 66.0196 54.7874 66.4258L55.263 68.0235L55.6329 69.2962C55.7914 69.8513 55.9235 70.3929 56.0688 71.0292C56.2141 71.6656 56.2934 71.8687 56.4123 72.2884C56.5312 72.7081 56.518 72.83 56.584 73.0872C60.2671 65.159 65.538 58.1146 72.0535 52.4125C78.5143 46.8122 86.0673 42.6901 94.2074 40.3217C94.6164 37.7098 94.8547 35.0727 94.9207 32.4282V29.9099C94.9207 29.9099 94.749 28.6913 94.683 28.3799ZM94.0621 44.37L93.4808 44.5325C92.8643 44.713 92.2566 44.9026 91.6578 45.1012L89.9932 45.6563L89.4384 45.9L88.4212 46.3062C88.2069 46.3719 87.999 46.458 87.8003 46.5634L86.8756 46.9425L86.2283 47.2404C85.9259 47.3635 85.6304 47.5036 85.3432 47.6601L84.6959 47.9715L83.8504 48.3912L83.2031 48.7568L82.3708 49.1901L81.7235 49.5692L80.9177 50.0431L80.2836 50.4222L79.4909 50.9231L78.87 51.3293L78.0774 51.8573L77.4962 52.2635L76.6639 52.8457L76.1223 53.2519L75.29 53.9153L74.8144 54.2809L73.8633 55.0527L73.5198 55.337L72.1988 56.4608L71.0363 57.5575L70.6664 57.923L69.8473 58.7354L69.4114 59.1957L68.6716 59.9539L68.2224 60.4549C67.9846 60.6986 67.7733 60.9694 67.5487 61.2131L67.0731 61.7412C66.8793 62.0046 66.6674 62.2534 66.439 62.4858L65.9899 63.0951L65.3822 63.8533L64.9462 64.4355L64.365 65.2073L63.9422 65.803L63.3874 66.6018L62.9779 67.2111L62.423 68.037L62.0399 68.6327C61.8682 68.9306 61.6833 69.2014 61.5115 69.4993C61.3398 69.7971 61.2737 69.8919 61.168 70.095L60.6132 71.0292L60.3226 71.5708L59.7281 72.6946L59.5035 73.0872C59.2525 73.5882 58.9883 74.1027 58.7637 74.6307L58.6052 74.9286C58.4335 75.3348 58.2353 75.7545 58.0504 76.1878C57.8654 76.621 57.8786 76.5669 57.7994 76.7564L57.3767 77.7719C57.2445 78.1239 57.2049 78.2052 57.1124 78.4353L56.7426 79.3425L56.4916 80.0601C56.4123 80.2631 56.3462 80.4933 56.2538 80.6964C57.0992 80.4933 57.9183 80.2631 58.7637 80.0059L60.9567 79.3425C61.2737 79.2206 61.604 79.1258 61.921 78.9769L63.2421 78.4489L64.2065 78.0427L65.0255 77.6771L66.1616 77.1626L66.9674 76.77L67.8393 76.3232H67.9318L68.3942 76.0795L69.3189 75.5785L70.4682 74.9015L71.6307 74.211C72.5687 73.6017 73.5462 72.9383 74.5238 72.2478L75.4617 71.5302L75.9373 71.1782L76.9677 70.3658L77.8793 69.594C77.6789 69.2879 77.4937 68.9716 77.3244 68.6463C76.9732 67.8656 76.7629 67.0261 76.7035 66.1686V65.3427C76.8191 63.6186 77.5588 62.001 78.7776 60.8069C79.3835 60.231 80.0862 59.7722 80.8516 59.453C82.3831 58.8296 84.0891 58.8296 85.6206 59.453C86.0251 59.6253 86.4141 59.8337 86.7831 60.0758L87.1134 59.629L87.7475 58.7354L88.2627 57.9907C88.5005 57.6793 88.6986 57.3544 88.91 57.0159L89.0289 56.8263L89.1874 56.5691L90.0329 55.2151C90.2625 54.8657 90.4742 54.5041 90.667 54.132C90.8651 53.7393 91.3935 52.778 91.737 52.1417C91.8691 51.898 92.0012 51.6543 92.1069 51.4105C92.4107 50.8013 92.7146 50.1785 92.992 49.5556C93.2694 48.9328 93.3091 48.8787 93.4412 48.5537L93.9432 47.3487L94.4055 46.1166C94.4507 45.9095 94.5217 45.7093 94.6169 45.5209C94.6829 45.3178 94.8018 44.9928 94.8943 44.7491L95 44.4106L94.0621 44.37Z" fill="#1570EF"/>
<path fill-rule="evenodd" clip-rule="evenodd" d="M37.001 75.7864C36.825 75.1651 36.649 74.5303 36.4459 73.882C36.2429 73.2336 36.0804 72.7744 35.8909 72.1531C35.8374 71.9636 35.7695 71.7785 35.6878 71.5993L35.2952 70.5863C35.252 70.3576 35.1596 70.1411 35.0244 69.9515C34.9296 69.7489 34.7942 69.3032 34.6588 68.979C34.5235 68.6548 34.4693 68.5333 34.361 68.3172C34.2527 68.1011 34.1038 67.6959 33.9548 67.3852C33.8059 67.0746 33.7518 66.9395 33.657 66.7099L33.2373 65.8319L32.8853 65.1566L32.4927 64.2787L31.6533 62.8335L31.2471 62.1311L30.7597 61.2802L30.3671 60.6589L29.7849 59.8485L29.3923 59.2542C29.2163 58.9705 28.9997 58.6869 28.8237 58.4032L28.4311 57.836L27.7948 56.958C27.664 56.7934 27.542 56.6221 27.4292 56.4448L26.6575 55.4588L26.3867 54.9995C26.0077 54.5403 25.6557 54.0946 25.2766 53.6489L24.2341 52.4333L23.855 52.0551L23.0563 51.1907L22.6095 50.7314C22.3793 50.4748 22.1221 50.2182 21.8649 49.975L21.3775 49.5023L20.6464 48.8L20.1184 48.3137L19.4144 47.5979L18.9541 47.1521C18.7104 46.9225 18.4531 46.7064 18.1959 46.5038L17.6002 46.0311L16.8285 45.4368L16.2463 44.9911L15.4611 44.4103C15.258 44.2752 15.0685 44.1131 14.8654 43.9916C14.6623 43.87 14.3238 43.5999 14.0531 43.4243L13.5386 43.0056L12.6857 42.4653L12.1035 42.0871L10.5737 41.1281L9.47703 40.5203L9.09794 40.3177C8.61055 40.0341 8.09609 39.7775 7.58162 39.5208L7.29731 39.4128L6.05176 38.805L5.41544 38.5484L4.42712 38.1026L3.80435 37.819L2.89726 37.4543L2.19325 37.1842L1.57048 36.9546C1.77356 37.819 1.99018 38.6834 2.24741 39.5614C2.34218 39.9395 2.45049 40.2502 2.54526 40.5744L2.92434 41.79C3.04619 42.1952 3.14096 42.4653 3.27634 42.803C3.41173 43.1406 3.64189 43.789 3.80435 44.2752L4.19697 45.2747L4.56251 46.1256L5.06344 47.3007C5.18529 47.5979 5.32067 47.868 5.44252 48.1516L5.88929 49.0566C5.95699 49.2187 6.03822 49.3807 6.11945 49.5428C6.30899 49.9075 6.44438 50.1912 6.62038 50.5018L7.28377 51.7174C7.50039 52.1361 7.73055 52.5413 7.9607 52.9195C8.5564 53.919 9.19272 54.9455 9.89672 55.945L10.5737 56.931L10.9121 57.4443L11.7109 58.4978L12.442 59.4298C12.7327 59.2197 13.0407 59.0344 13.3626 58.876C14.1624 58.5758 15.0131 58.4336 15.8672 58.4573H16.6796C17.5184 58.5192 18.337 58.744 19.0894 59.1191C19.8608 59.483 20.5513 59.9974 21.1202 60.6319C21.7056 61.2543 22.1652 61.9835 22.4741 62.7794C23.0611 64.3799 23.0611 66.136 22.4741 67.7364C22.3092 68.1509 22.1052 68.5489 21.8649 68.925L22.3116 69.2897L23.1781 69.938L23.9092 70.4918L24.8569 71.1401L25.0464 71.2887L25.3037 71.4642L26.6575 72.3422L27.7271 73.004C28.3634 73.3822 29.0809 73.7604 29.6766 74.1116L30.3806 74.5033L32.2084 75.4217L33.1967 75.8945H33.2914L34.4558 76.4077L35.6607 76.921L36.2293 77.1371L37.001 77.4342L37.3259 77.5558L37.0146 76.3267L37.001 75.7864ZM54.3169 79.6898C54.3318 79.5047 54.2992 79.3187 54.2221 79.1496C54.1848 78.5929 54.0941 78.0412 53.9514 77.5018C52.8006 71.1822 50.83 65.039 48.0891 59.2272L48.211 59.4162L52.2726 55.2562C52.7441 54.7598 53.0432 54.1252 53.1255 53.4463C53.2093 52.764 53.0717 52.0728 52.7329 51.4743C51.8484 50.0263 50.8904 48.6243 49.8627 47.2737C49.4526 46.7213 48.8725 46.3181 48.211 46.1256C47.5542 45.938 46.8533 45.976 46.2208 46.2337L41.5771 48.0976C41.3941 47.8078 41.1952 47.5282 40.9814 47.2602L40.5211 46.6254C40.318 46.3417 40.1149 46.0581 39.8983 45.8015C39.6817 45.5448 39.5734 45.3692 39.3974 45.1666L38.7881 44.3833L41.7801 39.5884C42.1492 38.9951 42.3154 38.2984 42.254 37.6029C42.1963 36.9093 41.9108 36.2541 41.4417 35.7389C40.2926 34.4777 39.0769 33.2784 37.7998 32.1462C37.2907 31.6896 36.6418 31.4182 35.9585 31.3763C35.2717 31.3243 34.5878 31.5103 34.0225 31.903L29.6766 34.9421L29.4329 34.7259L28.7154 34.1317L28.0791 33.5644L27.348 32.9836L27.0772 32.781C27.4428 31.876 28.3363 29.5394 29.0132 27.743C29.2894 27.0835 29.3324 26.35 29.1351 25.6629C28.9359 24.9988 28.5276 24.4163 27.9708 24.0016C26.6169 23.0021 25.1683 22.0566 23.7061 21.1922C23.1116 20.8533 22.4213 20.7203 21.743 20.814C21.0639 20.8993 20.4363 21.2195 19.9694 21.719L16.2463 25.6629L15.5965 25.3118L14.6623 24.839L13.9448 24.4878L13.0648 24.0556L12.5232 23.8395C12.618 23.1372 13.0377 20.3818 13.322 18.2477C13.4168 17.5418 13.274 16.8244 12.9158 16.2082C12.5906 15.5999 12.0644 15.1227 11.4266 14.8575C9.87093 14.1909 8.28005 13.6092 6.661 13.1152C6.01761 12.8853 5.3142 12.8853 4.67082 13.1152C4.0146 13.3727 3.46884 13.8503 3.12742 14.4659C1.88187 16.5054 0.189541 19.3553 0.135386 19.4363C0.135386 20.787 0 22.1377 0 23.4883C0.000120128 26.1309 0.176512 28.7706 0.528006 31.3898H0.690469L1.5434 31.6599L2.53172 31.9976L3.37111 32.3082L4.33235 32.6459L5.17175 32.9836L6.10591 33.3753C6.39022 33.4833 6.64746 33.6049 6.91823 33.7264L7.83885 34.1181L8.65117 34.5233L9.5718 34.9556L10.357 35.3473L11.2506 35.82L12.0358 36.2522L12.9023 36.7384L13.674 37.1842L14.5405 37.7109L15.2851 38.1837L16.1245 38.7104L17.6814 39.791L18.399 40.3042L19.1977 40.8985L19.8882 41.4388L20.6735 42.0601L21.3775 42.6139C21.6347 42.8165 21.8649 43.0461 22.1356 43.2487L22.799 43.843L23.5301 44.5048L24.1935 45.1126L24.911 45.8015C25.1277 45.9906 25.3307 46.2067 25.5338 46.4093L26.2514 47.1251L26.8606 47.7599L27.5511 48.5028L28.1197 49.1511L28.7831 49.9075L29.3652 50.5828L30.0016 51.3662L30.5566 52.0551L31.1659 52.879L31.6939 53.5678L32.2896 54.3917L32.804 55.1076C32.9936 55.3912 33.1696 55.6749 33.3727 55.9585C33.5472 56.2046 33.7055 56.4618 33.8465 56.7284C33.9954 56.985 34.2121 57.2957 34.3881 57.5928C34.5287 57.851 34.6871 58.0992 34.8619 58.3357L35.3764 59.2407L35.8096 59.9835C35.9856 60.2942 36.1481 60.6048 36.3105 60.9155C36.473 61.2261 36.5949 61.4287 36.7167 61.6854C36.8386 61.942 37.0552 62.3067 37.2041 62.6173C37.353 62.928 37.4613 63.1441 37.5832 63.4007C37.705 63.6574 37.9081 64.0626 38.057 64.3867C38.206 64.7109 38.3007 64.8865 38.3955 65.1566C38.4903 65.4267 38.7069 65.8319 38.8423 66.1696L39.1807 66.9395C39.3161 67.3042 39.4515 67.6689 39.6004 68.0335L39.8847 68.7494C40.0472 69.1546 40.1826 69.5733 40.318 69.9785C40.4023 70.1766 40.4746 70.3796 40.5346 70.5863C40.7648 71.2211 40.9678 71.8424 41.1574 72.4637C41.3469 73.0851 41.5229 73.8144 41.6989 74.3817C41.7194 74.5918 41.7743 74.7971 41.8614 74.9895C41.9291 75.2056 42.0915 75.8945 42.1863 76.3402C42.2811 76.7859 42.3082 76.7994 42.3623 77.0155C42.4165 77.2316 42.5518 77.907 42.6331 78.3662C42.7143 78.8254 42.7414 78.7984 42.7685 79.0145V79.2982L44.9076 79.7844L45.6928 79.9465H45.8417L46.8436 80.1356L47.683 80.2571L48.6171 80.3922L49.5513 80.5138L50.499 80.6218C50.8171 80.6061 51.1359 80.6334 51.4467 80.7029H52.2184L54.4794 81V80.8649C54.4252 80.4732 54.3575 80.1086 54.3169 79.6898ZM60.0031 2.47188C59.0704 1.54706 58.0133 0.756096 56.8622 0.121708C56.7585 0.049144 56.6366 0.00702919 56.5102 0.000147064C56.3862 -0.00248733 56.264 0.0303193 56.1581 0.0946942C56.0488 0.163466 55.9563 0.255764 55.8874 0.364829C55.8293 0.47796 55.7969 0.602477 55.7926 0.72951V11.5349C55.7803 11.9333 55.6212 12.3131 55.3458 12.6019C55.0756 12.8824 54.7066 13.0471 54.3169 13.0612H46.7759C46.3824 13.0464 46.0095 12.8821 45.7334 12.6019C45.4587 12.3236 45.2992 11.9523 45.2866 11.5619V0.72951C45.2749 0.600168 45.2332 0.475319 45.1648 0.364829C45.0993 0.256526 45.0058 0.167863 44.894 0.108201C44.789 0.0404199 44.6671 0.00301755 44.542 0.000147064C44.4157 -0.000186535 44.2908 0.0274939 44.1765 0.0811874C43.0111 0.7679 41.9336 1.59336 40.9678 2.53941C39.6185 3.90309 38.5755 5.53757 37.9081 7.3343C37.2374 9.12802 36.9514 11.0422 37.0687 12.9531C37.1674 14.861 37.6668 16.727 38.5344 18.4302C39.4019 20.1334 40.6184 21.6357 42.1051 22.84C42.9242 23.5371 43.8353 24.1188 44.8128 24.5689H56.2258C57.2182 24.1077 58.1503 23.5271 59.0013 22.84C60.4815 21.6328 61.6902 20.1278 62.5484 18.4233C63.4018 16.7054 63.8904 14.8301 63.9836 12.9149C64.0768 10.9998 63.7725 9.08614 63.0899 7.29378C62.4082 5.50579 61.3564 3.8812 60.0031 2.52591V2.47188ZM52.9224 27.0136H48.1162C47.7846 27.0207 47.4693 27.158 47.2386 27.3957C47.0079 27.6335 46.8806 27.9524 46.8842 28.2832V34.4828C46.8806 34.8137 47.0079 35.1326 47.2386 35.3703C47.4693 35.608 47.7846 35.7454 48.1162 35.7525H52.9224C53.254 35.7454 53.5694 35.608 53.8001 35.3703C54.0307 35.1326 54.1581 34.8137 54.1544 34.4828V28.3643C54.1674 28.1938 54.1453 28.0225 54.0895 27.8608C54.0338 27.6991 53.9455 27.5505 53.8302 27.4241C53.7148 27.2976 53.5748 27.196 53.4187 27.1254C53.2626 27.0548 53.0938 27.0168 52.9224 27.0136Z" fill="#2E90FA"/>
</svg>
