<svg width="44" height="44" viewBox="0 0 44 44" fill="none" xmlns="http://www.w3.org/2000/svg">
<path d="M38.882 17.3789C38.592 16.7559 38.2637 16.1508 37.8989 15.5669C37.7768 15.3512 37.5848 15.1816 37.3533 15.085C37.123 14.9892 36.8662 14.9739 36.6258 15.0416C36.0356 15.2016 35.4547 15.393 34.8857 15.6151C34.6472 15.7079 34.4477 15.8768 34.3192 16.0945C34.1908 16.3123 34.141 16.5661 34.1779 16.815C34.2614 17.5813 34.3892 18.6222 34.4138 18.8391C33.9665 19.027 33.5241 19.2246 33.0916 19.4559L31.7742 18.0102C31.6175 17.8193 31.399 17.6867 31.1548 17.6343C30.9102 17.5917 30.6581 17.6289 30.4372 17.7403C29.8866 18.0246 29.3656 18.362 28.8445 18.6704C28.6357 18.8075 28.4798 19.0095 28.4022 19.2439C28.3186 19.4812 28.3186 19.7391 28.4022 19.9764C28.6578 20.733 29.0166 21.7787 29.0559 21.904C28.7905 22.1064 28.525 22.3137 28.2645 22.5257L26.7309 21.4028C26.5352 21.2504 26.2926 21.1674 26.0427 21.1674C25.7928 21.1674 25.5502 21.2504 25.3545 21.4028C24.8773 21.7903 24.4227 22.2038 23.9929 22.6414C23.8144 22.8165 23.7018 23.0459 23.6734 23.2919C23.6404 23.5376 23.6924 23.787 23.8209 24.0004L24.8482 25.769C24.1859 26.5185 23.5687 27.3054 23 28.1255L23.1131 28.4147L23.2998 28.8966C23.3736 29.0749 23.4424 29.2532 23.5112 29.4315C23.58 29.6098 23.6292 29.7351 23.6833 29.9134L23.875 30.4676C23.9339 30.6508 23.9782 30.7761 24.0372 30.9206L24.2141 31.4893L24.3518 31.9423C24.4108 32.1399 24.4599 32.3326 24.514 32.5591C24.5681 32.7856 24.5975 32.8579 24.6418 33.0073C24.686 33.1567 24.6811 33.2001 24.7057 33.2916C26.0761 30.4697 28.0374 27.9624 30.4618 25.9328C32.8658 23.9395 35.6762 22.4723 38.7051 21.6293C38.8573 20.6997 38.9459 19.7611 38.9705 18.8198V17.9234C38.9705 17.9234 38.9066 17.4897 38.882 17.3789ZM38.651 23.0703L38.4347 23.1281C38.2053 23.1924 37.9792 23.2598 37.7564 23.3305L37.137 23.5281L36.9306 23.6148L36.5521 23.7594C36.4723 23.7828 36.395 23.8135 36.321 23.851L35.977 23.9859L35.7361 24.0919C35.6236 24.1357 35.5136 24.1856 35.4068 24.2413L35.1659 24.3522L34.8513 24.5015L34.6104 24.6317L34.3008 24.7859L34.0599 24.9208L33.7601 25.0895L33.5241 25.2244L33.2292 25.4027L32.9982 25.5473L32.7032 25.7352L32.4869 25.8798L32.1773 26.087L31.9757 26.2316L31.6661 26.4678L31.4891 26.5979L31.1352 26.8726L31.0074 26.9738L30.5158 27.3738L30.0833 27.7641L29.9456 27.8942L29.6409 28.1834L29.4786 28.3472L29.2034 28.6171L29.0363 28.7954C28.9478 28.8821 28.8691 28.9785 28.7856 29.0653L28.6086 29.2532C28.5365 29.347 28.4577 29.4355 28.3727 29.5183L28.2055 29.7351L27.9794 30.005L27.8172 30.2122L27.6009 30.4869L27.4436 30.699L27.2372 30.9833L27.0848 31.2001L26.8783 31.4941L26.7358 31.7062C26.6719 31.8122 26.6031 31.9086 26.5392 32.0146C26.4753 32.1206 26.4507 32.1543 26.4114 32.2266L26.2049 32.5591L26.0968 32.7519L25.8756 33.1519L25.792 33.2916C25.6986 33.47 25.6003 33.6531 25.5167 33.841L25.4578 33.9471C25.3939 34.0916 25.3201 34.241 25.2513 34.3952C25.1825 34.5494 25.1874 34.5302 25.1579 34.5976L25.0006 34.9591C24.9515 35.0844 24.9367 35.1133 24.9023 35.1952L24.7647 35.5181L24.6713 35.7735C24.6418 35.8458 24.6172 35.9277 24.5828 36C24.8974 35.9277 25.2022 35.8458 25.5167 35.7542L26.3327 35.5181C26.4507 35.4747 26.5736 35.441 26.6916 35.388L27.1831 35.2L27.5419 35.0555L27.8467 34.9253L28.2694 34.7422L28.5693 34.6025L28.8937 34.4434H28.9281L29.1002 34.3567L29.4442 34.1784L29.8719 33.9374L30.3045 33.6916C30.6535 33.4748 31.0172 33.2386 31.381 32.9929L31.73 32.7374L31.9069 32.6122L32.2903 32.323L32.6295 32.0483C32.5549 31.9393 32.486 31.8267 32.423 31.711C32.2924 31.4331 32.2141 31.1343 32.192 30.8291V30.5351C32.235 29.9215 32.5102 29.3457 32.9637 28.9207C33.1892 28.7157 33.4507 28.5524 33.7355 28.4388C34.3053 28.2169 34.9401 28.2169 35.51 28.4388C35.6605 28.5001 35.8053 28.5743 35.9425 28.6605L36.0654 28.5014L36.3014 28.1834L36.4931 27.9183C36.5816 27.8075 36.6553 27.6918 36.7339 27.5713L36.7782 27.5039L36.8372 27.4123L37.1518 26.9304C37.2372 26.806 37.316 26.6773 37.3877 26.5449C37.4614 26.4051 37.6581 26.0629 37.7859 25.8364C37.835 25.7497 37.8842 25.663 37.9235 25.5762C38.0366 25.3594 38.1496 25.1377 38.2528 24.916C38.3561 24.6943 38.3708 24.675 38.42 24.5594L38.6068 24.1305L38.7788 23.6919C38.7956 23.6182 38.822 23.547 38.8574 23.4799C38.882 23.4076 38.9263 23.2919 38.9607 23.2052L39 23.0847L38.651 23.0703Z" fill="#2E3238"/>
<path fill-rule="evenodd" clip-rule="evenodd" d="M18.8754 34.1978C18.8094 33.983 18.7434 33.7636 18.6672 33.5394C18.5911 33.3153 18.5301 33.1566 18.4591 32.9418C18.439 32.8763 18.4136 32.8123 18.3829 32.7504L18.2357 32.4002C18.2195 32.3212 18.1849 32.2463 18.1341 32.1808C18.0986 32.1107 18.0478 31.9567 17.9971 31.8446C17.9463 31.7325 17.926 31.6905 17.8854 31.6158C17.8448 31.5411 17.7889 31.401 17.7331 31.2937C17.6772 31.1863 17.6569 31.1396 17.6214 31.0602L17.464 30.7567L17.332 30.5233L17.1847 30.2198L16.87 29.7202L16.7177 29.4774L16.5349 29.1833L16.3877 28.9685L16.1694 28.6884L16.0221 28.4829C15.9561 28.3849 15.8749 28.2868 15.8089 28.1888L15.6617 27.9927L15.423 27.6892C15.374 27.6323 15.3282 27.5731 15.286 27.5118L14.9966 27.1709L14.895 27.0122C14.7529 26.8534 14.6209 26.6994 14.4787 26.5453L14.0878 26.1251L13.9456 25.9943L13.6461 25.6955L13.4786 25.5368C13.3922 25.4481 13.2958 25.3594 13.1993 25.2753L13.0165 25.1119L12.7424 24.8691L12.5444 24.701L12.2804 24.4536L12.1078 24.2995C12.0164 24.2201 11.9199 24.1454 11.8235 24.0754L11.6001 23.912L11.3107 23.7065L11.0924 23.5525L10.7979 23.3517C10.7218 23.305 10.6507 23.249 10.5745 23.207C10.4984 23.1649 10.3714 23.0716 10.2699 23.0109L10.077 22.8661L9.75713 22.6794L9.53882 22.5486L8.96512 22.2171L8.55388 22.007L8.41173 21.937C8.22896 21.8389 8.03603 21.7502 7.84311 21.6615L7.73649 21.6242L7.26941 21.4141L7.03079 21.3254L6.66017 21.1713L6.42663 21.0732L6.08647 20.9472L5.82247 20.8538L5.58893 20.7744C5.66508 21.0732 5.74632 21.372 5.84278 21.6755C5.87832 21.8063 5.91893 21.9136 5.95447 22.0257L6.09663 22.4459C6.14232 22.586 6.17786 22.6794 6.22863 22.7961C6.2794 22.9128 6.36571 23.1369 6.42663 23.305L6.57386 23.6505L6.71094 23.9447L6.89879 24.3509C6.94448 24.4536 6.99525 24.547 7.04095 24.645L7.20849 24.9578C7.23387 25.0139 7.26433 25.0699 7.29479 25.1259C7.36587 25.252 7.41664 25.35 7.48264 25.4574L7.73141 25.8776C7.81265 26.0224 7.89895 26.1624 7.98526 26.2932C8.20865 26.6387 8.44727 26.9935 8.71127 27.339L8.96512 27.6799L9.09204 27.8573L9.39159 28.2215L9.66574 28.5436C9.77477 28.471 9.89026 28.407 10.011 28.3522C10.3109 28.2484 10.6299 28.1993 10.9502 28.2075H11.2548C11.5694 28.2289 11.8764 28.3066 12.1585 28.4362C12.4478 28.562 12.7067 28.7398 12.9201 28.9592C13.1396 29.1743 13.312 29.4264 13.4278 29.7015C13.6479 30.2548 13.6479 30.8618 13.4278 31.415C13.3659 31.5583 13.2894 31.6959 13.1993 31.8259L13.3669 31.952L13.6918 32.1761L13.9659 32.3675L14.3213 32.5916L14.3924 32.643L14.4889 32.7037L14.9966 33.0072L15.3977 33.236C15.6363 33.3667 15.9053 33.4974 16.1287 33.6188L16.3927 33.7542L17.0781 34.0717L17.4488 34.2351H17.4843L17.9209 34.4125L18.3728 34.59L18.586 34.6647L18.8754 34.7674L18.9972 34.8094L18.8805 34.3845L18.8754 34.1978ZM25.3688 35.5471C25.3744 35.4831 25.3622 35.4188 25.3333 35.3603C25.3193 35.1679 25.2853 34.9772 25.2318 34.7907C24.8002 32.6062 24.0612 30.4826 23.0334 28.4736L23.0791 28.539L24.6022 27.1009C24.7791 26.9293 24.8912 26.71 24.9221 26.4753C24.9535 26.2394 24.9019 26.0005 24.7748 25.7936C24.4432 25.293 24.0839 24.8084 23.6985 24.3415C23.5447 24.1506 23.3272 24.0112 23.0791 23.9447C22.8328 23.8798 22.57 23.893 22.3328 23.982L20.5914 24.6263C20.5228 24.5261 20.4482 24.4295 20.368 24.3369L20.1954 24.1174C20.1192 24.0194 20.0431 23.9213 19.9619 23.8326C19.8806 23.7439 19.84 23.6832 19.774 23.6132L19.5455 23.3424L20.6676 21.6849C20.8059 21.4798 20.8683 21.239 20.8452 20.9985C20.8236 20.7588 20.7165 20.5323 20.5406 20.3542C20.1097 19.9182 19.6538 19.5036 19.1749 19.1123C18.984 18.9544 18.7407 18.8606 18.4845 18.8461C18.2269 18.8281 17.9704 18.8925 17.7584 19.0282L16.1287 20.0787L16.0374 20.004L15.7683 19.7986L15.5297 19.6025L15.2555 19.4017L15.154 19.3317C15.291 19.0189 15.6261 18.2111 15.88 17.5902C15.9835 17.3622 15.9996 17.1086 15.9257 16.8711C15.8509 16.6416 15.6979 16.4402 15.489 16.2969C14.9813 15.9513 14.4381 15.6245 13.8898 15.3257C13.6668 15.2086 13.408 15.1626 13.1536 15.195C12.899 15.2244 12.6636 15.3351 12.4885 15.5078L11.0924 16.8711L10.8487 16.7497L10.4984 16.5863L10.2293 16.4649L9.89928 16.3155L9.6962 16.2408C9.73174 15.998 9.88913 15.0456 9.99575 14.3079C10.0313 14.0638 9.97774 13.8158 9.84344 13.6028C9.72149 13.3926 9.52417 13.2276 9.28497 13.1359C8.7016 12.9055 8.10502 12.7044 7.49787 12.5336C7.2566 12.4542 6.99283 12.4542 6.75156 12.5336C6.50547 12.6227 6.30081 12.7878 6.17278 13.0005C5.7057 13.7056 5.07108 14.6907 5.05077 14.7187C5.05077 15.1856 5 15.6525 5 16.1194C5.00005 17.0329 5.06619 17.9454 5.198 18.8508H5.25893L5.57878 18.9442L5.94939 19.0609L6.26417 19.1683L6.62463 19.285L6.93941 19.4017L7.28972 19.5371C7.39633 19.5745 7.4928 19.6165 7.59434 19.6585L7.93957 19.7939L8.24419 19.934L8.58942 20.0834L8.88389 20.2188L9.21897 20.3822L9.51343 20.5316L9.83836 20.6997L10.1277 20.8538L10.4527 21.0359L10.7319 21.1993L11.0467 21.3814L11.6305 21.7549L11.8996 21.9323L12.1992 22.1378L12.4581 22.3245L12.7525 22.5393L13.0165 22.7307C13.113 22.8008 13.1993 22.8801 13.3009 22.9502L13.5496 23.1556L13.8238 23.3844L14.0726 23.5945L14.3416 23.8326C14.4229 23.898 14.499 23.9727 14.5752 24.0427L14.8443 24.2902L15.0727 24.5096L15.3317 24.7664L15.5449 24.9905L15.7937 25.252L16.012 25.4854L16.2506 25.7562L16.4587 25.9943L16.6872 26.2792L16.8852 26.5173L17.1086 26.8021L17.3015 27.0495C17.3726 27.1476 17.4386 27.2456 17.5148 27.3437C17.5802 27.4288 17.6396 27.5177 17.6924 27.6098C17.7483 27.6985 17.8295 27.8059 17.8955 27.9086C17.9483 27.9979 18.0076 28.0837 18.0732 28.1654L18.2661 28.4783L18.4286 28.735C18.4946 28.8424 18.5555 28.9498 18.6165 29.0572C18.6774 29.1646 18.7231 29.2346 18.7688 29.3233C18.8145 29.4121 18.8957 29.5381 18.9515 29.6455C19.0074 29.7529 19.048 29.8276 19.0937 29.9163C19.1394 30.005 19.2155 30.1451 19.2714 30.2571C19.3272 30.3692 19.3628 30.4299 19.3983 30.5233C19.4338 30.6167 19.5151 30.7567 19.5659 30.8734L19.6928 31.1396C19.7435 31.2656 19.7943 31.3917 19.8502 31.5178L19.9568 31.7652C20.0177 31.9053 20.0685 32.05 20.1192 32.1901C20.1508 32.2586 20.178 32.3287 20.2005 32.4002C20.2868 32.6196 20.3629 32.8344 20.434 33.0492C20.5051 33.264 20.5711 33.5161 20.6371 33.7122C20.6448 33.7848 20.6654 33.8558 20.698 33.9223C20.7234 33.997 20.7843 34.2351 20.8199 34.3892C20.8554 34.5433 20.8656 34.5479 20.8859 34.6226C20.9062 34.6974 20.9569 34.9308 20.9874 35.0895C21.0179 35.2483 21.028 35.239 21.0382 35.3137V35.4117L21.8403 35.5798L22.1348 35.6358H22.1906L22.5663 35.7012L22.8811 35.7432L23.2314 35.7899L23.5817 35.8319L23.9371 35.8693C24.0564 35.8638 24.176 35.8733 24.2925 35.8973H24.5819L25.4298 36V35.9533C25.4095 35.8179 25.3841 35.6918 25.3688 35.5471ZM27.5012 8.85448C27.1514 8.53479 26.755 8.26137 26.3233 8.04207C26.2844 8.01699 26.2387 8.00243 26.1913 8.00005C26.1448 7.99914 26.099 8.01048 26.0593 8.03273C26.0183 8.05651 25.9836 8.08841 25.9578 8.12611C25.936 8.16522 25.9239 8.20826 25.9222 8.25218V11.9874C25.9176 12.1251 25.8579 12.2564 25.7547 12.3562C25.6533 12.4532 25.515 12.5101 25.3688 12.515H22.541C22.3934 12.5098 22.2535 12.4531 22.15 12.3562C22.047 12.26 21.9872 12.1317 21.9825 11.9967V8.25218C21.9781 8.20747 21.9625 8.16431 21.9368 8.12611C21.9123 8.08868 21.8772 8.05803 21.8353 8.0374C21.7959 8.01397 21.7502 8.00104 21.7033 8.00005C21.6559 7.99994 21.6091 8.0095 21.5662 8.02806C21.1291 8.26545 20.7251 8.55079 20.3629 8.87782C19.857 9.34922 19.4658 9.91422 19.2155 10.5353C18.964 11.1554 18.8568 11.8171 18.9008 12.4776C18.9378 13.1372 19.125 13.7822 19.4504 14.3709C19.7757 14.9597 20.2319 15.479 20.7894 15.8953C21.0966 16.1363 21.4382 16.3374 21.8048 16.4929H26.0847C26.4568 16.3335 26.8064 16.1328 27.1255 15.8953C27.6806 15.478 28.1338 14.9578 28.4556 14.3686C28.7757 13.7747 28.9589 13.1264 28.9938 12.4644C29.0288 11.8024 28.9147 11.1409 28.6587 10.5213C28.4031 9.90324 28.0086 9.34165 27.5012 8.87315V8.85448ZM24.8459 17.338H23.0436C22.9192 17.3405 22.801 17.388 22.7145 17.4701C22.628 17.5523 22.5802 17.6626 22.5816 17.7769V19.92C22.5802 20.0344 22.628 20.1446 22.7145 20.2268C22.801 20.309 22.9192 20.3564 23.0436 20.3589H24.8459C24.9702 20.3564 25.0885 20.309 25.175 20.2268C25.2615 20.1446 25.3093 20.0344 25.3079 19.92V17.8049C25.3128 17.746 25.3045 17.6868 25.2836 17.6309C25.2627 17.575 25.2296 17.5236 25.1863 17.4799C25.1431 17.4362 25.0906 17.4011 25.032 17.3767C24.9735 17.3523 24.9102 17.3391 24.8459 17.338Z" fill="#2E3238"/>
</svg>
