<svg width="66" height="56" viewBox="0 0 66 56" fill="none" xmlns="http://www.w3.org/2000/svg">
<g clip-path="url(#clip0_1785_32765)">
<path d="M65.7788 19.6445C65.2351 18.4282 64.6195 17.2468 63.9355 16.1068C63.7065 15.6857 63.3465 15.3546 62.9124 15.1659C62.4807 14.9789 61.9991 14.949 61.5484 15.0812C60.4417 15.3935 59.3525 15.7673 58.2857 16.2008C57.8386 16.382 57.4644 16.7118 57.2235 17.1369C56.9827 17.5621 56.8893 18.0577 56.9585 18.5436C57.1152 20.0396 57.3548 22.0719 57.4009 22.4953C56.5622 22.8623 55.7327 23.248 54.9217 23.6996L52.4516 20.877C52.1578 20.5044 51.7481 20.2455 51.2903 20.1431C50.8317 20.06 50.359 20.1327 49.9447 20.3501C48.9124 20.9052 47.9355 21.5639 46.9585 22.166C46.5668 22.4337 46.2747 22.828 46.129 23.2857C45.9724 23.749 45.9724 24.2525 46.129 24.7158C46.6083 26.193 47.2811 28.2347 47.3548 28.4793C46.8571 28.8745 46.3594 29.2791 45.871 29.693L42.9954 27.5008C42.6285 27.2031 42.1737 27.0411 41.7051 27.0411C41.2364 27.0411 40.7816 27.2031 40.4147 27.5008C39.52 28.2573 38.6676 29.0646 37.8618 29.9189C37.527 30.2608 37.3158 30.7086 37.2627 31.189C37.2008 31.6687 37.2982 32.1556 37.5392 32.5721L39.4654 36.0252C38.2235 37.4886 37.0664 39.0248 36 40.626L36.212 41.1906L36.5622 42.1315C36.7005 42.4796 36.8295 42.8277 36.9585 43.1758C37.0876 43.524 37.1797 43.7686 37.2811 44.1167L37.6406 45.1987C37.7512 45.5563 37.8341 45.8009 37.9447 46.0831L38.2765 47.1934L38.5346 48.0778C38.6452 48.4636 38.7373 48.8399 38.8387 49.2821C38.9401 49.7243 38.9954 49.8655 39.0783 50.1571C39.1613 50.4488 39.1521 50.5335 39.1982 50.7123C41.7678 45.2028 45.4451 40.3075 49.9908 36.3451C54.4984 32.4533 59.7679 29.5888 65.447 27.943C65.7324 26.1279 65.8986 24.2954 65.9447 22.4577V20.7077C65.9447 20.7077 65.8249 19.8609 65.7788 19.6445ZM65.3456 30.7562L64.9401 30.8691C64.51 30.9946 64.086 31.1263 63.6682 31.2643L62.5069 31.6501L62.1198 31.8194L61.4101 32.1017C61.2606 32.1474 61.1156 32.2072 60.977 32.2805L60.3318 32.5439L59.8802 32.7509C59.6692 32.8364 59.4631 32.9338 59.2627 33.0426L58.8111 33.259L58.2212 33.5506L57.7696 33.8047L57.1889 34.1058L56.7373 34.3692L56.1751 34.6985L55.7327 34.962L55.1797 35.3101L54.7465 35.5924L54.1936 35.9593L53.788 36.2416L53.2074 36.6461L52.8295 36.9284L52.2488 37.3894L51.9171 37.6435L51.2535 38.1798L51.0138 38.3774L50.0922 39.1583L49.2811 39.9204L49.023 40.1744L48.4516 40.739L48.1475 41.0589L47.6313 41.5857L47.318 41.9339C47.1521 42.1032 47.0046 42.2914 46.8479 42.4608L46.5161 42.8277C46.3809 43.0107 46.2331 43.1837 46.0737 43.3452L45.7604 43.7686L45.3364 44.2955L45.0323 44.7001L44.6267 45.2364L44.3318 45.6503L43.9447 46.2055L43.659 46.6289L43.2719 47.2028L43.0046 47.6168C42.8848 47.8238 42.7558 48.0119 42.6359 48.2189C42.5161 48.4259 42.47 48.4918 42.3963 48.6329L42.0092 49.2821L41.8065 49.6585L41.3917 50.4394L41.235 50.7123C41.0599 51.0604 40.8756 51.4179 40.7189 51.7849L40.6083 51.9919C40.4885 52.2741 40.3502 52.5658 40.2212 52.8669C40.0922 53.168 40.1014 53.1303 40.0461 53.262L39.7512 53.9677C39.659 54.2123 39.6313 54.2688 39.5668 54.4287L39.3088 55.0591L39.1336 55.5578C39.0783 55.6989 39.0323 55.8589 38.9677 56C39.5576 55.8589 40.129 55.6989 40.7189 55.5202L42.2488 55.0591C42.47 54.9744 42.7005 54.9086 42.9217 54.8051L43.8433 54.4381L44.5161 54.1559L45.0876 53.9018L45.8802 53.5443L46.4424 53.2715L47.0507 52.961H47.1152L47.4378 52.7916L48.0829 52.4435L48.8848 51.973L49.6959 51.4932C50.3502 51.0698 51.0323 50.6088 51.7143 50.1289L52.3687 49.6303L52.7005 49.3856L53.4194 48.8211L54.0553 48.2848C53.9155 48.072 53.7863 47.8522 53.6682 47.6262C53.4232 47.0836 53.2764 46.5003 53.235 45.9044V45.3304C53.3157 44.1324 53.8317 43.0083 54.682 42.1785C55.1048 41.7783 55.595 41.4595 56.129 41.2376C57.1975 40.8044 58.3878 40.8044 59.4562 41.2376C59.7385 41.3574 60.0099 41.5022 60.2673 41.6704L60.4977 41.3599L60.9401 40.739L61.2995 40.2215C61.4654 40.0051 61.6037 39.7793 61.7512 39.544L61.8341 39.4123L61.9447 39.2336L62.5346 38.2927C62.6948 38.0498 62.8425 37.7986 62.977 37.54C63.1152 37.2671 63.4839 36.5991 63.7235 36.1569C63.8157 35.9875 63.9078 35.8182 63.9816 35.6488C64.1935 35.2254 64.4055 34.7926 64.5991 34.3598C64.7926 33.927 64.8203 33.8894 64.9124 33.6635L65.2627 32.8262L65.5853 31.97C65.6167 31.8261 65.6663 31.6869 65.7327 31.556C65.7788 31.4149 65.8617 31.189 65.9263 31.0197L66 30.7845L65.3456 30.7562Z" fill="#2E3238"/>
<path fill-rule="evenodd" clip-rule="evenodd" d="M25.4382 52.3955C25.3172 51.966 25.1962 51.5271 25.0566 51.0789C24.917 50.6307 24.8053 50.3132 24.675 49.8836C24.6382 49.7526 24.5915 49.6246 24.5353 49.5008L24.2654 48.8004C24.2358 48.6423 24.1722 48.4926 24.0793 48.3615C24.0141 48.2215 23.921 47.9133 23.828 47.6892C23.7349 47.4651 23.6976 47.381 23.6232 47.2316C23.5487 47.0822 23.4463 46.8021 23.3439 46.5873C23.2416 46.3725 23.2043 46.2792 23.1392 46.1204L22.8506 45.5134L22.6086 45.0465L22.3387 44.4396L21.7616 43.4404L21.4824 42.9548L21.1473 42.3665L20.8774 41.937L20.4771 41.3767L20.2072 40.9658C20.0862 40.7697 19.9373 40.5736 19.8163 40.3776L19.5464 39.9854L19.1089 39.3784C19.019 39.2646 18.9351 39.1462 18.8576 39.0235L18.327 38.3419L18.1409 38.0244C17.8803 37.7069 17.6383 37.3987 17.3777 37.0906L16.6609 36.2502L16.4003 35.9887L15.8512 35.3911L15.544 35.0736C15.3858 34.8962 15.2089 34.7187 15.0321 34.5506L14.697 34.2238L14.1944 33.7382L13.8314 33.4021L13.3474 32.9072L13.0309 32.599C12.8634 32.4403 12.6865 32.2909 12.5097 32.1508L12.1001 31.824L11.5696 31.4131L11.1694 31.1049L10.6295 30.7034C10.4899 30.61 10.3596 30.498 10.22 30.4139C10.0803 30.3299 9.84765 30.1431 9.66149 30.0217L9.30779 29.7322L8.7214 29.3587L8.32117 29.0973L7.26939 28.4343L6.51546 28.0141L6.25484 27.874C5.91976 27.6779 5.56606 27.5005 5.21236 27.323L5.0169 27.2483L4.16058 26.8281L3.72312 26.6507L3.04365 26.3426L2.61549 26.1465L1.99187 25.8943L1.50786 25.7076L1.0797 25.5488C1.21932 26.1465 1.36825 26.7441 1.54509 27.3511C1.61025 27.6125 1.68471 27.8273 1.74987 28.0514L2.01048 28.8918C2.09425 29.172 2.15941 29.3587 2.25249 29.5922C2.34556 29.8256 2.5038 30.2738 2.61549 30.61L2.88542 31.301L3.13673 31.8893L3.48111 32.7017C3.56488 32.9072 3.65796 33.0939 3.74173 33.29L4.04889 33.9157C4.09543 34.0277 4.15128 34.1398 4.20712 34.2518C4.33743 34.504 4.43051 34.7001 4.55151 34.9148L5.00759 35.7552C5.15652 36.0447 5.31475 36.3249 5.47298 36.5863C5.88253 37.2773 6.31999 37.987 6.804 38.678L7.26939 39.3597L7.50208 39.7146L8.05124 40.4429L8.55386 41.0872C8.75374 40.942 8.96547 40.8139 9.18679 40.7044C9.73665 40.4969 10.3215 40.3985 10.9087 40.4149H11.4672C12.0439 40.4577 12.6067 40.6132 13.124 40.8725C13.6543 41.1241 14.129 41.4797 14.5202 41.9183C14.9226 42.3487 15.2386 42.8528 15.4509 43.4031C15.8545 44.5095 15.8545 45.7236 15.4509 46.8301C15.3375 47.1167 15.1973 47.3918 15.0321 47.6518L15.3392 47.904L15.9349 48.3522L16.4376 48.735L17.0891 49.1833L17.2194 49.286L17.3963 49.4074L18.327 50.0144L19.0624 50.4719C19.4998 50.7334 19.9931 50.9948 20.4027 51.2376L20.8867 51.5084L22.1432 52.1434L22.8227 52.4702H22.8879L23.6883 52.8251L24.5167 53.1799L24.9077 53.3293L25.4382 53.5348L25.6616 53.6188L25.4475 52.7691L25.4382 52.3955ZM37.3429 55.0942C37.3531 54.9662 37.3307 54.8376 37.2777 54.7207C37.252 54.3359 37.1897 53.9544 37.0916 53.5815C36.3004 49.2124 34.9456 44.9652 33.0613 40.9472L33.1451 41.0779L35.9374 38.2018C36.2616 37.8586 36.4672 37.4199 36.5238 36.9505C36.5814 36.4788 36.4868 36.001 36.2539 35.5872C35.6458 34.5861 34.9872 33.6168 34.2806 32.6831C33.9987 32.3012 33.5998 32.0224 33.1451 31.8893C32.6935 31.7596 32.2116 31.7859 31.7768 31.964L28.5842 33.2527C28.4584 33.0523 28.3217 32.859 28.1747 32.6737L27.8582 32.2348C27.7186 32.0387 27.579 31.8426 27.4301 31.6652C27.2811 31.4878 27.2067 31.3664 27.0857 31.2263L26.6668 30.6847L28.7239 27.3697C28.9776 26.9596 29.0919 26.4779 29.0496 25.9971C29.01 25.5175 28.8137 25.0646 28.4912 24.7084C27.7011 23.8364 26.8653 23.0073 25.9874 22.2245C25.6374 21.9088 25.1912 21.7212 24.7215 21.6922C24.2493 21.6563 23.7791 21.7849 23.3905 22.0564L20.4027 24.1575L20.2351 24.0081L19.7418 23.5972L19.3044 23.205L18.8017 22.8035L18.6156 22.6634C18.8669 22.0377 19.4812 20.4223 19.9466 19.1803C20.1365 18.7244 20.166 18.2173 20.0304 17.7423C19.8934 17.2831 19.6127 16.8804 19.2299 16.5937C18.2991 15.9027 17.3032 15.249 16.2979 14.6514C15.8892 14.4171 15.4146 14.3252 14.9483 14.3899C14.4814 14.4489 14.0499 14.6703 13.729 15.0156L11.1694 17.7423L10.7226 17.4995L10.0803 17.1727L9.58703 16.9299L8.98202 16.6311L8.60971 16.4816C8.67486 15.9961 8.96341 14.0911 9.15887 12.6157C9.22407 12.1277 9.12585 11.6317 8.87963 11.2057C8.65607 10.7851 8.29431 10.4552 7.85578 10.2719C6.78627 9.81099 5.69253 9.40886 4.57943 9.06728C4.13711 8.90836 3.65352 8.90836 3.21119 9.06728C2.76004 9.24532 2.38483 9.57552 2.1501 10.0011C1.29378 11.4111 0.130309 13.3814 0.0930779 13.4375C0.0930779 14.3713 0 15.3051 0 16.2389C8.25877e-05 18.0658 0.121352 19.8908 0.363004 21.7016H0.474697L1.06109 21.8883L1.74056 22.1218L2.31764 22.3366L2.97849 22.57L3.55558 22.8035L4.19782 23.0743C4.39328 23.149 4.57013 23.233 4.75628 23.317L5.38921 23.5879L5.94768 23.868L6.58061 24.1668L7.12046 24.4376L7.73478 24.7644L8.27463 25.0633L8.87033 25.3994L9.40087 25.7076L9.99657 26.0718L10.5085 26.3986L11.0856 26.7628L12.156 27.5098L12.6493 27.8646L13.1985 28.2755L13.6731 28.649L14.213 29.0786L14.697 29.4614C14.8739 29.6015 15.0321 29.7603 15.2182 29.9003L15.6743 30.3112L16.1769 30.7688L16.633 31.189L17.1263 31.6652C17.2753 31.7959 17.4149 31.9454 17.5545 32.0854L18.0478 32.5803L18.4667 33.0192L18.9414 33.5328L19.3323 33.981L19.7884 34.504L20.1886 34.9709L20.6261 35.5125L21.0077 35.9887L21.4265 36.5583L21.7895 37.0346L22.1991 37.6042L22.5528 38.0991C22.6831 38.2952 22.8041 38.4913 22.9437 38.6874C23.0637 38.8575 23.1725 39.0353 23.2695 39.2196C23.3719 39.3971 23.5208 39.6118 23.6418 39.8173C23.7385 39.9958 23.8474 40.1674 23.9676 40.3309L24.3213 40.9565L24.6191 41.4701C24.7401 41.6849 24.8518 41.8996 24.9635 42.1144C25.0752 42.3292 25.159 42.4693 25.2427 42.6467C25.3265 42.8241 25.4754 43.0762 25.5778 43.291C25.6802 43.5058 25.7547 43.6552 25.8384 43.8326C25.9222 44.01 26.0618 44.2902 26.1642 44.5143C26.2666 44.7384 26.3317 44.8598 26.3969 45.0465C26.4621 45.2333 26.611 45.5134 26.7041 45.7469L26.9368 46.2792C27.0298 46.5313 27.1229 46.7834 27.2253 47.0355L27.4208 47.5304C27.5325 47.8106 27.6255 48.1001 27.7186 48.3802C27.7765 48.5172 27.8263 48.6575 27.8675 48.8004C28.0258 49.2393 28.1654 49.6688 28.2957 50.0984C28.426 50.5279 28.547 51.0322 28.668 51.4244C28.6821 51.5696 28.7198 51.7116 28.7797 51.8446C28.8262 51.994 28.9379 52.4702 29.0031 52.7784C29.0682 53.0865 29.0869 53.0959 29.1241 53.2453C29.1613 53.3947 29.2544 53.8616 29.3102 54.1791C29.3661 54.4966 29.3847 54.4779 29.4033 54.6273V54.8234L30.8739 55.1596L31.4138 55.2716H31.5162L32.205 55.4024L32.782 55.4864L33.4243 55.5798L34.0665 55.6638L34.7181 55.7385C34.9368 55.7277 35.1559 55.7465 35.3696 55.7946H35.9002L37.4546 56V55.9066C37.4173 55.6358 37.3708 55.3837 37.3429 55.0942ZM41.2521 1.70895C40.6109 1.06957 39.8841 0.522733 39.0927 0.0841435C39.0215 0.0339761 38.9376 0.00485969 38.8507 0.000101674C38.7655 -0.00171964 38.6815 0.0209615 38.6087 0.0654676C38.5336 0.113013 38.47 0.176825 38.4226 0.252227C38.3826 0.330441 38.3604 0.416527 38.3574 0.504353V7.97474C38.3489 8.25017 38.2396 8.51279 38.0503 8.71244C37.8645 8.90634 37.6108 9.02019 37.3429 9.02993H32.1584C31.8879 9.0197 31.6315 8.90612 31.4417 8.71244C31.2529 8.52003 31.1432 8.26331 31.1346 7.99342V0.504353C31.1265 0.414931 31.0978 0.328615 31.0508 0.252227C31.0058 0.177351 30.9415 0.116054 30.8646 0.0748056C30.7924 0.0279446 30.7086 0.00208621 30.6226 0.000101674C30.5358 -0.000128962 30.4499 0.0190081 30.3713 0.0561296C29.5701 0.530894 28.8294 1.10158 28.1654 1.75564C27.2378 2.69843 26.5207 3.82845 26.0618 5.07063C25.6007 6.31073 25.4041 7.63412 25.4847 8.95523C25.5526 10.2743 25.8959 11.5644 26.4924 12.7419C27.0888 13.9194 27.9252 14.958 28.9472 15.7906C29.5104 16.2725 30.1367 16.6747 30.8088 16.9859H38.6553C39.3375 16.6671 39.9783 16.2657 40.5634 15.7906C41.5811 14.956 42.412 13.9155 43.002 12.7371C43.5887 11.5494 43.9246 10.2529 43.9887 8.92885C44.0528 7.60482 43.8436 6.28178 43.3743 5.04261C42.9056 3.80647 42.1825 2.6833 41.2521 1.7463V1.70895ZM36.3842 18.6761H33.0799C32.8519 18.681 32.6351 18.7759 32.4765 18.9403C32.3179 19.1046 32.2304 19.3251 32.2329 19.5538V23.84C32.2304 24.0687 32.3179 24.2892 32.4765 24.4536C32.6351 24.6179 32.8519 24.7128 33.0799 24.7177H36.3842C36.6121 24.7128 36.8289 24.6179 36.9875 24.4536C37.1461 24.2892 37.2337 24.0687 37.2312 23.84V19.6099C37.2401 19.492 37.2249 19.3736 37.1865 19.2618C37.1482 19.15 37.0875 19.0473 37.0082 18.9599C36.9289 18.8724 36.8327 18.8022 36.7254 18.7534C36.6181 18.7046 36.502 18.6783 36.3842 18.6761Z" fill="#2E3238"/>
</g>
<defs>
<clipPath id="clip0_1785_32765">
<rect width="66" height="56" fill="white"/>
</clipPath>
</defs>
</svg>
